<svg width="100" height="100" viewBox="0 0 100 100" xmlns="http://www.w3.org/2000/svg"><path d="M57.214 75.31H43.742V46.465c0-3.563-.596-6.235-1.789-8.016-1.192-1.782-3.07-2.673-5.631-2.673-3.446 0-5.949 1.267-7.51 3.799-1.56 2.532-2.34 6.699-2.34 12.5v23.233H13v-49.38h10.292l1.81 6.316h.751c1.325-2.268 3.24-4.042 5.742-5.323C34.098 25.641 36.97 25 40.208 25c7.392 0 12.397 2.415 15.018 7.244h1.193c1.325-2.297 3.276-4.079 5.852-5.345C64.848 25.633 67.756 25 70.995 25c5.595 0 9.827 1.435 12.698 4.307C86.565 32.177 88 36.779 88 43.11v32.2H74.484V46.465c0-3.563-.596-6.235-1.789-8.016-1.192-1.782-3.07-2.673-5.631-2.673-3.298 0-5.765 1.178-7.399 3.534-1.634 2.356-2.451 6.095-2.451 11.219v24.78z" fill-rule="evenodd"/></svg>
